<mxfile host="Electron" agent="Mozilla/5.0 (Windows NT 10.0; Win64; x64) AppleWebKit/537.36 (KHTML, like Gecko) draw.io/24.7.17 Chrome/128.0.6613.36 Electron/32.0.1 Safari/537.36" version="24.7.17">
  <diagram name="Страница — 1" id="QbjqRr6eiSzYvlj82acc">
    <mxGraphModel dx="1395" dy="703" grid="1" gridSize="10" guides="1" tooltips="1" connect="1" arrows="1" fold="1" page="1" pageScale="1" pageWidth="827" pageHeight="1169" math="0" shadow="0">
      <root>
        <mxCell id="0" />
        <mxCell id="1" parent="0" />
        <mxCell id="VJis0RI-ayQ-CPS1EI_X-8" style="edgeStyle=orthogonalEdgeStyle;rounded=0;orthogonalLoop=1;jettySize=auto;html=1;" edge="1" parent="1" source="VJis0RI-ayQ-CPS1EI_X-3">
          <mxGeometry relative="1" as="geometry">
            <mxPoint x="280" y="80" as="targetPoint" />
          </mxGeometry>
        </mxCell>
        <mxCell id="VJis0RI-ayQ-CPS1EI_X-9" style="edgeStyle=orthogonalEdgeStyle;rounded=0;orthogonalLoop=1;jettySize=auto;html=1;" edge="1" parent="1" source="VJis0RI-ayQ-CPS1EI_X-3" target="VJis0RI-ayQ-CPS1EI_X-11">
          <mxGeometry relative="1" as="geometry">
            <mxPoint x="550" y="80" as="targetPoint" />
          </mxGeometry>
        </mxCell>
        <mxCell id="VJis0RI-ayQ-CPS1EI_X-3" value="Заказ пиццы" style="rounded=1;whiteSpace=wrap;html=1;" vertex="1" parent="1">
          <mxGeometry x="363.5" y="50" width="100" height="60" as="geometry" />
        </mxCell>
        <mxCell id="VJis0RI-ayQ-CPS1EI_X-11" value="Каталог доступной для заказа пиццы" style="shape=module;align=left;spacingLeft=20;align=center;verticalAlign=top;whiteSpace=wrap;html=1;" vertex="1" parent="1">
          <mxGeometry x="570" y="55" width="130" height="50" as="geometry" />
        </mxCell>
        <mxCell id="VJis0RI-ayQ-CPS1EI_X-21" value="тех.поддержка" style="shape=module;align=left;spacingLeft=20;align=center;verticalAlign=top;whiteSpace=wrap;html=1;" vertex="1" parent="1">
          <mxGeometry x="130" y="55" width="150" height="50" as="geometry" />
        </mxCell>
        <mxCell id="VJis0RI-ayQ-CPS1EI_X-22" value="" style="verticalLabelPosition=bottom;verticalAlign=top;html=1;shape=mxgraph.basic.rect;fillColor2=none;strokeWidth=1;size=20;indent=5;" vertex="1" parent="1">
          <mxGeometry x="100" y="195" width="50" height="110" as="geometry" />
        </mxCell>
        <mxCell id="VJis0RI-ayQ-CPS1EI_X-23" value="" style="verticalLabelPosition=bottom;verticalAlign=top;html=1;shape=mxgraph.basic.rect;fillColor2=none;strokeWidth=1;size=20;indent=5;" vertex="1" parent="1">
          <mxGeometry x="240" y="200" width="50" height="110" as="geometry" />
        </mxCell>
        <mxCell id="VJis0RI-ayQ-CPS1EI_X-24" value="Поддержка.ехе" style="text;html=1;align=center;verticalAlign=middle;whiteSpace=wrap;rounded=0;" vertex="1" parent="1">
          <mxGeometry x="70" y="165" width="110" height="30" as="geometry" />
        </mxCell>
        <mxCell id="VJis0RI-ayQ-CPS1EI_X-25" value="Поддержка.hlp" style="text;html=1;align=center;verticalAlign=middle;whiteSpace=wrap;rounded=0;" vertex="1" parent="1">
          <mxGeometry x="210" y="165" width="110" height="30" as="geometry" />
        </mxCell>
        <mxCell id="VJis0RI-ayQ-CPS1EI_X-27" value="" style="endArrow=classic;html=1;rounded=0;entryX=0.5;entryY=0;entryDx=0;entryDy=0;" edge="1" parent="1" target="VJis0RI-ayQ-CPS1EI_X-24">
          <mxGeometry width="50" height="50" relative="1" as="geometry">
            <mxPoint x="211" y="105" as="sourcePoint" />
            <mxPoint x="390" y="325" as="targetPoint" />
          </mxGeometry>
        </mxCell>
        <mxCell id="VJis0RI-ayQ-CPS1EI_X-28" value="" style="endArrow=classic;html=1;rounded=0;entryX=0.5;entryY=0;entryDx=0;entryDy=0;exitX=0.5;exitY=1;exitDx=0;exitDy=0;" edge="1" parent="1" source="VJis0RI-ayQ-CPS1EI_X-29" target="VJis0RI-ayQ-CPS1EI_X-34">
          <mxGeometry width="50" height="50" relative="1" as="geometry">
            <mxPoint x="439" y="250" as="sourcePoint" />
            <mxPoint x="494" y="310" as="targetPoint" />
          </mxGeometry>
        </mxCell>
        <mxCell id="VJis0RI-ayQ-CPS1EI_X-29" value="Исполнители" style="shape=module;align=left;spacingLeft=20;align=center;verticalAlign=top;whiteSpace=wrap;html=1;" vertex="1" parent="1">
          <mxGeometry x="364" y="195" width="100" height="50" as="geometry" />
        </mxCell>
        <mxCell id="VJis0RI-ayQ-CPS1EI_X-30" style="edgeStyle=orthogonalEdgeStyle;rounded=0;orthogonalLoop=1;jettySize=auto;html=1;exitX=0.5;exitY=1;exitDx=0;exitDy=0;entryX=0.5;entryY=0;entryDx=0;entryDy=0;" edge="1" parent="1" source="VJis0RI-ayQ-CPS1EI_X-3" target="VJis0RI-ayQ-CPS1EI_X-29">
          <mxGeometry relative="1" as="geometry" />
        </mxCell>
        <mxCell id="VJis0RI-ayQ-CPS1EI_X-31" value="" style="verticalLabelPosition=bottom;verticalAlign=top;html=1;shape=mxgraph.basic.rect;fillColor2=none;strokeWidth=1;size=20;indent=5;" vertex="1" parent="1">
          <mxGeometry x="390" y="350" width="50" height="110" as="geometry" />
        </mxCell>
        <mxCell id="VJis0RI-ayQ-CPS1EI_X-33" value="" style="verticalLabelPosition=bottom;verticalAlign=top;html=1;shape=mxgraph.basic.rect;fillColor2=none;strokeWidth=1;size=20;indent=5;" vertex="1" parent="1">
          <mxGeometry x="494" y="360" width="50" height="110" as="geometry" />
        </mxCell>
        <mxCell id="VJis0RI-ayQ-CPS1EI_X-34" value="Система возврата.ехе" style="text;html=1;align=center;verticalAlign=middle;whiteSpace=wrap;rounded=0;" vertex="1" parent="1">
          <mxGeometry x="469" y="320" width="110" height="30" as="geometry" />
        </mxCell>
        <mxCell id="VJis0RI-ayQ-CPS1EI_X-35" value="СИстема оплаты.ехе" style="text;html=1;align=center;verticalAlign=middle;whiteSpace=wrap;rounded=0;" vertex="1" parent="1">
          <mxGeometry x="359" y="320" width="110" height="30" as="geometry" />
        </mxCell>
        <mxCell id="VJis0RI-ayQ-CPS1EI_X-37" value="" style="shape=waypoint;sketch=0;fillStyle=solid;size=6;pointerEvents=1;points=[];fillColor=none;resizable=0;rotatable=0;perimeter=centerPerimeter;snapToPoint=1;" vertex="1" parent="1">
          <mxGeometry x="299" y="365" width="20" height="20" as="geometry" />
        </mxCell>
        <mxCell id="VJis0RI-ayQ-CPS1EI_X-38" value="Интерфейс. Заявка" style="text;html=1;align=center;verticalAlign=middle;whiteSpace=wrap;rounded=0;" vertex="1" parent="1">
          <mxGeometry x="254" y="335" width="110" height="30" as="geometry" />
        </mxCell>
        <mxCell id="VJis0RI-ayQ-CPS1EI_X-41" value="" style="endArrow=classic;html=1;rounded=0;entryX=0.5;entryY=0;entryDx=0;entryDy=0;" edge="1" parent="1">
          <mxGeometry width="50" height="50" relative="1" as="geometry">
            <mxPoint x="210" y="105" as="sourcePoint" />
            <mxPoint x="265" y="165" as="targetPoint" />
          </mxGeometry>
        </mxCell>
        <mxCell id="VJis0RI-ayQ-CPS1EI_X-44" value="" style="endArrow=classic;html=1;rounded=0;exitX=0.5;exitY=1;exitDx=0;exitDy=0;entryX=0.5;entryY=0;entryDx=0;entryDy=0;" edge="1" parent="1" source="VJis0RI-ayQ-CPS1EI_X-29" target="VJis0RI-ayQ-CPS1EI_X-38">
          <mxGeometry width="50" height="50" relative="1" as="geometry">
            <mxPoint x="340" y="380" as="sourcePoint" />
            <mxPoint x="390" y="330" as="targetPoint" />
          </mxGeometry>
        </mxCell>
        <mxCell id="VJis0RI-ayQ-CPS1EI_X-45" value="" style="endArrow=classic;html=1;rounded=0;exitX=0.5;exitY=1;exitDx=0;exitDy=0;entryX=0.5;entryY=0;entryDx=0;entryDy=0;" edge="1" parent="1" source="VJis0RI-ayQ-CPS1EI_X-29" target="VJis0RI-ayQ-CPS1EI_X-35">
          <mxGeometry width="50" height="50" relative="1" as="geometry">
            <mxPoint x="340" y="380" as="sourcePoint" />
            <mxPoint x="390" y="330" as="targetPoint" />
          </mxGeometry>
        </mxCell>
        <mxCell id="VJis0RI-ayQ-CPS1EI_X-46" value="" style="verticalLabelPosition=bottom;verticalAlign=top;html=1;shape=mxgraph.basic.rect;fillColor2=none;strokeWidth=1;size=20;indent=5;" vertex="1" parent="1">
          <mxGeometry x="610" y="180" width="50" height="110" as="geometry" />
        </mxCell>
        <mxCell id="VJis0RI-ayQ-CPS1EI_X-53" value="" style="endArrow=classic;html=1;rounded=0;exitX=0.5;exitY=1;exitDx=0;exitDy=0;" edge="1" parent="1" source="VJis0RI-ayQ-CPS1EI_X-11" target="VJis0RI-ayQ-CPS1EI_X-52">
          <mxGeometry width="50" height="50" relative="1" as="geometry">
            <mxPoint x="635" y="105" as="sourcePoint" />
            <mxPoint x="635" y="160" as="targetPoint" />
          </mxGeometry>
        </mxCell>
        <mxCell id="VJis0RI-ayQ-CPS1EI_X-52" value="БазаДоступнойПиццы" style="text;html=1;align=center;verticalAlign=middle;whiteSpace=wrap;rounded=0;" vertex="1" parent="1">
          <mxGeometry x="605" y="150" width="60" height="30" as="geometry" />
        </mxCell>
      </root>
    </mxGraphModel>
  </diagram>
</mxfile>
